<svg xmlns="http://www.w3.org/2000/svg" viewBox="0 0 120 120" fill="none" stroke="#4ea3ff" stroke-width="2">
  <polygon points="60,18 92,37 92,75 60,94 28,75 28,37" fill="#131a2b" stroke="#c9a24b" stroke-width="2.5"/>
  <circle cx="60" cy="56" r="14" fill="none" stroke="#e6c878" stroke-width="2.5"/>
  <circle cx="60" cy="56" r="4" fill="#4ea3ff" stroke="none"/>
  <g stroke="#4ea3ff"><line x1="60" y1="18" x2="60" y2="4"/><line x1="92" y1="37" x2="106" y2="29"/><line x1="92" y1="75" x2="106" y2="83"/><line x1="60" y1="94" x2="60" y2="108"/><line x1="28" y1="75" x2="14" y2="83"/><line x1="28" y1="37" x2="14" y2="29"/></g>
  <g fill="#4ea3ff" stroke="none"><circle cx="60" cy="4" r="3"/><circle cx="106" cy="29" r="3"/><circle cx="106" cy="83" r="3"/><circle cx="60" cy="108" r="3"/><circle cx="14" cy="83" r="3"/><circle cx="14" cy="29" r="3"/></g>
</svg>
